<svg id="Layer_35" enable-background="new 0 0 64 64" height="512" viewBox="0 0 64 64" width="512" xmlns="http://www.w3.org/2000/svg"><g fill="#f0bc5e"><path d="m51 28h8v2h-8z"/><path d="m5 28h8v2h-8z"/><path d="m32.312 24c2.588 0 5.108-.631 7.369-1.792 2.637-2.203 4.319-5.512 4.319-9.208 0-6.617-5.383-12-12-12s-12 5.383-12 12c0 3.179 1.251 6.065 3.276 8.214 2.655 1.796 5.794 2.786 9.036 2.786z"/></g><path d="m31.243 12.97-.485-1.94-2.509.627c.554-1.544 2.019-2.657 3.751-2.657 2.206 0 4 1.794 4 4s-1.794 4-4 4c-.874 0-1.704-.276-2.399-.799l-1.201 1.6c1.045.784 2.29 1.199 3.6 1.199 3.309 0 6-2.691 6-6s-2.691-6-6-6c-2.289 0-4.281 1.289-5.292 3.179l-.813-1.626-1.789.895 2.359 4.717z"/><path d="m55.223 46.782c2.263-1.415 3.777-3.922 3.777-6.782 0-4.411-3.589-8-8-8-3.719 0-6.845 2.555-7.737 6h-1.263v-7.586l12.878-12.878c.724-.724 1.122-1.685 1.122-2.707 0-2.112-1.717-3.829-3.829-3.829-1.022 0-1.984.398-2.707 1.122l-6.443 6.442c-2.86 2.861-6.663 4.436-10.709 4.436-3.818 0-7.467-1.426-10.273-4.017l-7.5-6.924c-.74-.683-1.703-1.06-2.71-1.06-2.112.001-3.829 1.718-3.829 3.83 0 1.022.398 1.984 1.122 2.707l12.878 12.878v7.586h-1.263c-.892-3.445-4.017-6-7.737-6-4.411 0-8 3.589-8 8 0 2.86 1.514 5.367 3.777 6.782-4.536 1.714-7.777 6.089-7.777 11.218v5h19 1 22 1 19v-5c0-5.129-3.241-9.504-7.777-11.218zm-4.223-12.782c3.309 0 6 2.691 6 6s-2.691 6-6 6-6-2.691-6-6 2.691-6 6-6zm-4.208 12.791c-2.073.785-3.92 2.121-5.294 3.903-1.351-1.752-3.171-3.117-5.275-3.912 2.263-1.415 3.777-3.922 3.777-6.782h3c0 2.866 1.52 5.378 3.792 6.791zm-14.792-.791c-3.309 0-6-2.691-6-6s2.691-6 6-6 6 2.691 6 6-2.691 6-6 6zm2-21.082v1.082c0 .592-.26 1.15-.713 1.531-.46.386-1.047.541-1.653.437-.932-.161-1.634-1.08-1.634-2.138v-1.004c.763.103 1.533.174 2.312.174.568 0 1.131-.028 1.688-.082zm-23.464-8.796c-.346-.346-.536-.805-.536-1.293 0-1.009.82-1.829 1.829-1.829.503 0 .984.188 1.354.529l7.5 6.924c2.096 1.934 4.61 3.281 7.317 3.983v1.394c0 2.017 1.416 3.783 3.292 4.108.234.041.469.061.702.061.941 0 1.854-.327 2.58-.938.906-.762 1.426-1.877 1.426-3.061v-1.408c3.171-.692 6.086-2.264 8.436-4.614l6.443-6.442c.345-.346.804-.536 1.292-.536 1.009 0 1.829.82 1.829 1.829 0 .488-.19.947-.536 1.293l-13.464 13.464v8.414h-.263c-.892-3.445-4.017-6-7.737-6s-6.845 2.555-7.737 6h-.263v-8.414zm13.464 23.878c0 2.86 1.514 5.367 3.777 6.782-2.104.795-3.924 2.16-5.275 3.912-1.374-1.782-3.221-3.119-5.294-3.903 2.272-1.413 3.792-3.925 3.792-6.791zm-17 0c0-3.309 2.691-6 6-6s6 2.691 6 6-2.691 6-6 6-6-2.691-6-6zm-4 21v-3c0-5.514 4.486-10 10-10 3.356 0 6.49 1.731 8.333 4.528-.846 1.643-1.333 3.5-1.333 5.472v3zm39 0h-20v-3c0-5.514 4.486-10 10-10s10 4.486 10 10zm19 0h-17v-3c0-1.972-.487-3.829-1.333-5.472 1.843-2.797 4.977-4.528 8.333-4.528 5.514 0 10 4.486 10 10z"/><path d="m50 28h2v2h-2z"/><path d="m54 28h2v2h-2z"/><path d="m58 28h2v2h-2z"/><path d="m4 28h2v2h-2z"/><path d="m8 28h2v2h-2z"/><path d="m12 28h2v2h-2z"/></svg>