<svg id="filled_outline" height="512" viewBox="0 0 512 512" width="512" xmlns="http://www.w3.org/2000/svg" data-name="filled outline"><path d="m432 272a175.11445 175.11445 0 0 1 -23.55 88h-304.89995a176.01079 176.01079 0 1 1 328.44995-88z" fill="#8760e6"/><path d="m392 272a135.45133 135.45133 0 0 1 -32.3 88h-207.39995a136.00256 136.00256 0 1 1 239.69995-88z" fill="#d1e4ff"/><path d="m238.239 247.715 64.548-50.247-16.79 78.084z" fill="#ef5e3b"/><circle cx="256" cy="272" fill="#f5714f" r="32"/><path d="m24 296h464v120h-464z" fill="#ffc431"/><circle cx="96" cy="352" fill="#8be0e8" r="24"/><path d="m488 288h-464a8.00039 8.00039 0 0 0 -8 8v120a8.00039 8.00039 0 0 0 8 8h464a8.00039 8.00039 0 0 0 8-8v-120a8.00039 8.00039 0 0 0 -8-8zm-8 120h-448v-104h448z"/><path d="m61.65723 397.65723 18.10156-18.10157a32.03854 32.03854 0 1 0 -11.31445-11.31445l-18.10157 18.10156zm34.34277-61.65723a16 16 0 1 1 -16 16 16.01833 16.01833 0 0 1 16-16z"/><path d="m152 376h16v16h-16z"/><path d="m184 376h16v16h-16z"/><path d="m216 376h16v16h-16z"/><path d="m248 376h16v16h-16z"/><path d="m280 376h16v16h-16z"/><path d="m312 320h16v72h-16z"/><path d="m440 272c0-101.458-82.542-184-184-184s-184 82.542-184 184h16c0-92.63574 75.36426-168 168-168s168 75.36426 168 168z"/><path d="m307.03906 190.69238a7.99845 7.99845 0 0 0 -9.167.46289l-55.57642 43.26416a40.06933 40.06933 0 0 0 -26.29564 37.58057h16a24 24 0 0 1 48 0h16c0-1.34521-.06909-2.67432-.19946-3.98584l14.80688-68.86475a7.999 7.999 0 0 0 -3.56836-8.45703zm-38.28393 43.40528 21.58471-16.80274-5.75439 26.76416a40.07054 40.07054 0 0 0 -15.83032-9.96142z"/><path d="m362.53613 236.53027 14.55469-6.02881a127.45587 127.45587 0 0 1 6.90918 41.49854h16c0-79.40234-64.59766-144-144-144s-144 64.59766-144 144h16a127.45587 127.45587 0 0 1 6.90918-41.49854l14.55469 6.02881 6.123-14.78125-14.53369-6.02026a128.47619 128.47619 0 0 1 19.00391-28.35718l11.08935 11.08936 11.31446-11.31446-11.08936-11.08935a128.47619 128.47619 0 0 1 28.35718-19.00391l6.02026 14.53369 14.78125-6.123-6.02881-14.55469a127.17821 127.17821 0 0 1 33.49858-6.6519v15.74268h16v-15.74268a127.17821 127.17821 0 0 1 33.49854 6.65186l-6.02881 14.55469 14.78125 6.123 6.02026-14.53369a128.47619 128.47619 0 0 1 28.35718 19.00391l-11.08936 11.08935 11.31446 11.31446 11.08935-11.08936a128.47619 128.47619 0 0 1 19.00391 28.35718l-14.53369 6.02028z"/><path d="m388.92676 101.73438-9.85352 12.60546a199.98541 199.98541 0 0 1 50.17481 57.666l13.84961-8.01172a215.91587 215.91587 0 0 0 -54.1709-62.25974z"/><path d="m458.707 197.23047c-2.07129-5.61231-4.40527-11.20313-6.9375-16.61914l-14.49414 6.77734c2.34375 5.01172 4.50391 10.18653 6.41992 15.38086z"/></svg>